<svg xmlns="http://www.w3.org/2000/svg" xmlns:xlink="http://www.w3.org/1999/xlink" version="1.1" x="0px" y="0px" viewBox="0 0 100 100" style="enable-background:new 0 0 100 100;" xml:space="preserve"><path d="M65.544,90.425c0,0-5.837-17.513-4.147-30.395c0.199,0.098,0.401,0.194,0.605,0.282l22.275,19.264L95,71.578l-9.51-27.409  l-5.11-25.303c0,0-0.025-0.004-0.03-0.005l-1.121-8.818c-0.183-0.03-6.803,7.076-7.837,7.062c-1.368-0.018-2.912,0.007-4.587,0.101  l-0.423-7.632c-2.758,0.153-5.515,0.462-8.195,0.916l1.281,7.54c-2.301,0.392-4.716,0.934-7.188,1.674l-2.188-7.335  c-2.715,0.809-5.362,1.796-7.873,2.928l3.15,6.981c-2.171,0.982-4.344,2.146-6.48,3.515l-4.131-6.458  c-2.393,1.532-4.687,3.255-6.812,5.122l5.06,5.765c-1.782,1.566-3.506,3.316-5.15,5.265l-5.868-4.953  c-1.783,2.114-3.454,4.406-4.968,6.814l6.498,4.088c-1.252,1.993-2.425,4.148-3.508,6.473l-6.965-3.246  c-1.125,2.411-2.148,4.973-3.045,7.613l7.272,2.471c-0.756,2.226-1.431,4.59-2.027,7.082l-7.477-1.787  c-0.602,2.512-1.12,5.144-1.54,7.824l7.597,1.194c-0.369,2.351-0.67,4.807-0.897,7.372l-7.658-0.677  C5.161,76.912,5.071,82.12,5,83.501h7.656v6.924H65.544z"></path></svg>